<svg xmlns="http://www.w3.org/2000/svg" xmlns:xlink="http://www.w3.org/1999/xlink" width="500" zoomAndPan="magnify" viewBox="0 0 375 374.999991" height="500" preserveAspectRatio="xMidYMid meet" version="1.0"><defs><g/><clipPath id="5de34a480c"><path d="M 68.289062 122.300781 L 306 122.300781 L 306 193.550781 L 68.289062 193.550781 Z M 68.289062 122.300781 " clip-rule="nonzero"/></clipPath></defs><g fill="#000000" fill-opacity="1"><g transform="translate(90.904823, 234.993208)"><g><path d="M 30.640625 -36.03125 C 30.941406 -36.03125 31.1875 -35.925781 31.375 -35.71875 C 31.5625 -35.519531 31.65625 -35.285156 31.65625 -35.015625 L 31.65625 -12.765625 C 31.65625 -10.367188 31.054688 -8.15625 29.859375 -6.125 C 28.660156 -4.101562 27.046875 -2.488281 25.015625 -1.28125 C 22.992188 -0.0820312 20.800781 0.515625 18.4375 0.515625 C 16.03125 0.515625 13.8125 -0.0820312 11.78125 -1.28125 C 9.757812 -2.488281 8.144531 -4.101562 6.9375 -6.125 C 5.738281 -8.15625 5.140625 -10.367188 5.140625 -12.765625 L 5.140625 -35.015625 C 5.140625 -35.316406 5.242188 -35.5625 5.453125 -35.75 C 5.660156 -35.9375 5.921875 -36.03125 6.234375 -36.03125 C 6.535156 -36.03125 6.789062 -35.925781 7 -35.71875 C 7.207031 -35.519531 7.3125 -35.285156 7.3125 -35.015625 L 7.3125 -12.765625 C 7.3125 -10.742188 7.804688 -8.875 8.796875 -7.15625 C 9.796875 -5.4375 11.144531 -4.070312 12.84375 -3.0625 C 14.539062 -2.050781 16.40625 -1.546875 18.4375 -1.546875 C 20.457031 -1.546875 22.316406 -2.050781 24.015625 -3.0625 C 25.710938 -4.070312 27.066406 -5.4375 28.078125 -7.15625 C 29.097656 -8.875 29.609375 -10.742188 29.609375 -12.765625 L 29.609375 -35.015625 C 29.609375 -35.285156 29.703125 -35.519531 29.890625 -35.71875 C 30.078125 -35.925781 30.328125 -36.03125 30.640625 -36.03125 Z M 30.640625 -36.03125 "/></g></g></g><g fill="#000000" fill-opacity="1"><g transform="translate(130.536532, 234.993208)"><g><path d="M 4.0625 -11.578125 C 3.789062 -11.578125 3.5625 -11.679688 3.375 -11.890625 C 3.1875 -12.097656 3.09375 -12.359375 3.09375 -12.671875 C 3.09375 -12.941406 3.1875 -13.171875 3.375 -13.359375 C 3.5625 -13.546875 3.789062 -13.640625 4.0625 -13.640625 L 15.90625 -13.640625 C 16.1875 -13.640625 16.421875 -13.535156 16.609375 -13.328125 C 16.796875 -13.128906 16.890625 -12.875 16.890625 -12.5625 C 16.890625 -12.289062 16.796875 -12.054688 16.609375 -11.859375 C 16.421875 -11.671875 16.1875 -11.578125 15.90625 -11.578125 Z M 4.0625 -11.578125 "/></g></g></g><g fill="#000000" fill-opacity="1"><g transform="translate(153.337976, 234.993208)"><g><path d="M 23.625 -18.84375 C 25.820312 -18.425781 27.582031 -17.425781 28.90625 -15.84375 C 30.226562 -14.269531 30.890625 -12.234375 30.890625 -9.734375 C 30.890625 -6.609375 29.898438 -4.203125 27.921875 -2.515625 C 25.953125 -0.835938 23.441406 0 20.390625 0 L 6.171875 0 C 5.898438 0 5.660156 -0.101562 5.453125 -0.3125 C 5.242188 -0.519531 5.140625 -0.757812 5.140625 -1.03125 L 5.140625 -35.015625 C 5.140625 -35.285156 5.242188 -35.519531 5.453125 -35.71875 C 5.660156 -35.925781 5.898438 -36.03125 6.171875 -36.03125 L 20.03125 -36.03125 C 22.769531 -36.03125 24.960938 -35.238281 26.609375 -33.65625 C 28.265625 -32.082031 29.09375 -29.957031 29.09375 -27.28125 C 29.09375 -25.363281 28.609375 -23.625 27.640625 -22.0625 C 26.679688 -20.5 25.34375 -19.425781 23.625 -18.84375 Z M 26.921875 -27.34375 C 26.921875 -29.363281 26.296875 -30.972656 25.046875 -32.171875 C 23.796875 -33.378906 22.035156 -33.984375 19.765625 -33.984375 L 7.3125 -33.984375 L 7.3125 -19.515625 L 19.765625 -19.515625 C 21.898438 -19.546875 23.625 -20.238281 24.9375 -21.59375 C 26.257812 -22.945312 26.921875 -24.863281 26.921875 -27.34375 Z M 20.125 -2.0625 C 22.695312 -2.0625 24.773438 -2.703125 26.359375 -3.984375 C 27.941406 -5.273438 28.734375 -7.191406 28.734375 -9.734375 C 28.734375 -12.273438 27.941406 -14.1875 26.359375 -15.46875 C 24.773438 -16.757812 22.695312 -17.40625 20.125 -17.40625 L 7.3125 -17.40625 L 7.3125 -2.0625 Z M 20.125 -2.0625 "/></g></g></g><g fill="#000000" fill-opacity="1"><g transform="translate(189.624219, 234.993208)"><g><path d="M 25.59375 -2.0625 C 25.863281 -2.0625 26.101562 -1.957031 26.3125 -1.75 C 26.519531 -1.539062 26.625 -1.300781 26.625 -1.03125 C 26.625 -0.71875 26.519531 -0.46875 26.3125 -0.28125 C 26.101562 -0.09375 25.863281 0 25.59375 0 L 6.171875 0 C 5.898438 0 5.660156 -0.101562 5.453125 -0.3125 C 5.242188 -0.519531 5.140625 -0.757812 5.140625 -1.03125 L 5.140625 -35.015625 C 5.140625 -35.285156 5.242188 -35.519531 5.453125 -35.71875 C 5.660156 -35.925781 5.898438 -36.03125 6.171875 -36.03125 L 25.59375 -36.03125 C 25.863281 -36.03125 26.101562 -35.925781 26.3125 -35.71875 C 26.519531 -35.519531 26.625 -35.285156 26.625 -35.015625 C 26.625 -34.703125 26.519531 -34.453125 26.3125 -34.265625 C 26.101562 -34.078125 25.863281 -33.984375 25.59375 -33.984375 L 7.3125 -33.984375 L 7.3125 -19.609375 L 23.265625 -19.609375 C 23.546875 -19.609375 23.785156 -19.503906 23.984375 -19.296875 C 24.191406 -19.097656 24.296875 -18.859375 24.296875 -18.578125 C 24.296875 -18.273438 24.191406 -18.03125 23.984375 -17.84375 C 23.785156 -17.65625 23.546875 -17.5625 23.265625 -17.5625 L 7.3125 -17.5625 L 7.3125 -2.0625 Z M 25.59375 -2.0625 "/></g></g></g><g fill="#000000" fill-opacity="1"><g transform="translate(221.63856, 234.993208)"><g><path d="M 14.359375 0.515625 C 11.816406 0.515625 9.601562 0.078125 7.71875 -0.796875 C 5.832031 -1.671875 3.960938 -3.035156 2.109375 -4.890625 C 1.898438 -5.097656 1.796875 -5.351562 1.796875 -5.65625 C 1.796875 -5.9375 1.914062 -6.203125 2.15625 -6.453125 C 2.394531 -6.710938 2.65625 -6.84375 2.9375 -6.84375 C 3.238281 -6.84375 3.53125 -6.691406 3.8125 -6.390625 C 5.144531 -4.804688 6.726562 -3.601562 8.5625 -2.78125 C 10.40625 -1.957031 12.335938 -1.546875 14.359375 -1.546875 C 17.003906 -1.546875 19.1875 -2.179688 20.90625 -3.453125 C 22.625 -4.722656 23.484375 -6.40625 23.484375 -8.5 C 23.441406 -10.144531 22.988281 -11.5 22.125 -12.5625 C 21.269531 -13.625 20.21875 -14.472656 18.96875 -15.109375 C 17.71875 -15.742188 16.007812 -16.457031 13.84375 -17.25 C 11.476562 -18.132812 9.632812 -18.921875 8.3125 -19.609375 C 6.988281 -20.296875 5.851562 -21.273438 4.90625 -22.546875 C 3.96875 -23.816406 3.5 -25.484375 3.5 -27.546875 C 3.5 -29.222656 3.960938 -30.75 4.890625 -32.125 C 5.816406 -33.5 7.132812 -34.578125 8.84375 -35.359375 C 10.5625 -36.148438 12.554688 -36.546875 14.828125 -36.546875 C 16.847656 -36.546875 18.769531 -36.175781 20.59375 -35.4375 C 22.414062 -34.707031 23.859375 -33.671875 24.921875 -32.328125 C 25.265625 -31.847656 25.4375 -31.488281 25.4375 -31.25 C 25.4375 -30.976562 25.304688 -30.726562 25.046875 -30.5 C 24.785156 -30.28125 24.503906 -30.171875 24.203125 -30.171875 C 23.921875 -30.171875 23.695312 -30.273438 23.53125 -30.484375 C 22.570312 -31.710938 21.335938 -32.6875 19.828125 -33.40625 C 18.316406 -34.132812 16.648438 -34.5 14.828125 -34.5 C 12.222656 -34.5 10.050781 -33.878906 8.3125 -32.640625 C 6.582031 -31.398438 5.71875 -29.71875 5.71875 -27.59375 C 5.71875 -26.113281 6.132812 -24.859375 6.96875 -23.828125 C 7.8125 -22.804688 8.867188 -21.976562 10.140625 -21.34375 C 11.410156 -20.707031 12.988281 -20.046875 14.875 -19.359375 C 17.28125 -18.503906 19.1875 -17.710938 20.59375 -16.984375 C 22 -16.265625 23.195312 -15.21875 24.1875 -13.84375 C 25.1875 -12.476562 25.6875 -10.660156 25.6875 -8.390625 C 25.6875 -6.816406 25.222656 -5.34375 24.296875 -3.96875 C 23.367188 -2.59375 22.035156 -1.5 20.296875 -0.6875 C 18.566406 0.113281 16.585938 0.515625 14.359375 0.515625 Z M 14.359375 0.515625 "/></g></g></g><g fill="#000000" fill-opacity="1"><g transform="translate(252.777932, 234.993208)"><g><path d="M 27.859375 -36.03125 C 28.128906 -36.03125 28.363281 -35.9375 28.5625 -35.75 C 28.769531 -35.5625 28.875 -35.332031 28.875 -35.0625 C 28.875 -34.75 28.78125 -34.503906 28.59375 -34.328125 C 28.40625 -34.160156 28.160156 -34.078125 27.859375 -34.078125 L 16.375 -34.078125 L 16.375 -1.03125 C 16.375 -0.757812 16.269531 -0.519531 16.0625 -0.3125 C 15.851562 -0.101562 15.613281 0 15.34375 0 C 15.03125 0 14.78125 -0.101562 14.59375 -0.3125 C 14.40625 -0.519531 14.3125 -0.757812 14.3125 -1.03125 L 14.3125 -34.078125 L 2.828125 -34.078125 C 2.554688 -34.078125 2.316406 -34.171875 2.109375 -34.359375 C 1.898438 -34.554688 1.796875 -34.789062 1.796875 -35.0625 C 1.796875 -35.332031 1.898438 -35.5625 2.109375 -35.75 C 2.316406 -35.9375 2.554688 -36.03125 2.828125 -36.03125 Z M 27.859375 -36.03125 "/></g></g></g><g fill="#000000" fill-opacity="1"><g transform="translate(75.762381, 267.991974)"><g><path d="M 2.09375 0 L 2.09375 -16.6875 L 13.046875 -16.6875 L 13.046875 -15.234375 L 3.734375 -15.234375 L 3.734375 -9.09375 L 11.578125 -9.09375 L 11.578125 -7.734375 L 3.734375 -7.734375 L 3.734375 0 Z M 2.09375 0 "/></g></g></g><g fill="#000000" fill-opacity="1"><g transform="translate(98.039723, 267.991974)"><g><path d="M 8.859375 -1.359375 C 9.910156 -1.359375 10.785156 -1.554688 11.484375 -1.953125 C 12.179688 -2.359375 12.734375 -2.882812 13.140625 -3.53125 C 13.554688 -4.1875 13.847656 -4.925781 14.015625 -5.75 C 14.179688 -6.582031 14.265625 -7.421875 14.265625 -8.265625 L 14.265625 -16.6875 L 15.90625 -16.6875 L 15.90625 -8.265625 C 15.90625 -7.140625 15.78125 -6.070312 15.53125 -5.0625 C 15.28125 -4.050781 14.875 -3.160156 14.3125 -2.390625 C 13.757812 -1.628906 13.035156 -1.019531 12.140625 -0.5625 C 11.253906 -0.101562 10.171875 0.125 8.890625 0.125 C 7.566406 0.125 6.453125 -0.113281 5.546875 -0.59375 C 4.648438 -1.070312 3.925781 -1.703125 3.375 -2.484375 C 2.832031 -3.273438 2.441406 -4.171875 2.203125 -5.171875 C 1.972656 -6.171875 1.859375 -7.203125 1.859375 -8.265625 L 1.859375 -16.6875 L 3.484375 -16.6875 L 3.484375 -8.265625 C 3.484375 -7.390625 3.566406 -6.535156 3.734375 -5.703125 C 3.910156 -4.878906 4.203125 -4.144531 4.609375 -3.5 C 5.023438 -2.851562 5.578125 -2.332031 6.265625 -1.9375 C 6.960938 -1.550781 7.828125 -1.359375 8.859375 -1.359375 Z M 8.859375 -1.359375 "/></g></g></g><g fill="#000000" fill-opacity="1"><g transform="translate(124.217418, 267.991974)"><g><path d="M 2.09375 0 L 2.09375 -16.6875 L 9.140625 -16.6875 C 9.859375 -16.6875 10.519531 -16.53125 11.125 -16.21875 C 11.726562 -15.914062 12.25 -15.515625 12.6875 -15.015625 C 13.125 -14.523438 13.460938 -13.96875 13.703125 -13.34375 C 13.953125 -12.71875 14.078125 -12.082031 14.078125 -11.4375 C 14.078125 -10.832031 13.984375 -10.25 13.796875 -9.6875 C 13.617188 -9.132812 13.367188 -8.632812 13.046875 -8.1875 C 12.734375 -7.738281 12.347656 -7.363281 11.890625 -7.0625 C 11.429688 -6.757812 10.921875 -6.550781 10.359375 -6.4375 L 14.453125 0 L 12.59375 0 L 8.671875 -6.15625 L 3.734375 -6.15625 L 3.734375 0 Z M 3.734375 -7.609375 L 9.1875 -7.609375 C 9.675781 -7.609375 10.117188 -7.710938 10.515625 -7.921875 C 10.910156 -8.140625 11.25 -8.425781 11.53125 -8.78125 C 11.820312 -9.144531 12.046875 -9.550781 12.203125 -10 C 12.359375 -10.457031 12.4375 -10.9375 12.4375 -11.4375 C 12.4375 -11.945312 12.34375 -12.429688 12.15625 -12.890625 C 11.976562 -13.347656 11.734375 -13.75 11.421875 -14.09375 C 11.117188 -14.4375 10.757812 -14.710938 10.34375 -14.921875 C 9.9375 -15.128906 9.503906 -15.234375 9.046875 -15.234375 L 3.734375 -15.234375 Z M 3.734375 -7.609375 "/></g></g></g><g fill="#000000" fill-opacity="1"><g transform="translate(147.998514, 267.991974)"><g><path d="M 3.734375 -13.625 L 3.734375 0 L 2.09375 0 L 2.09375 -16.6875 L 3.359375 -16.6875 L 14.40625 -2.796875 L 14.40625 -16.65625 L 16.046875 -16.65625 L 16.046875 0 L 14.609375 0 Z M 3.734375 -13.625 "/></g></g></g><g fill="#000000" fill-opacity="1"><g transform="translate(174.575653, 267.991974)"><g><path d="M 2.09375 0 L 2.09375 -16.6875 L 3.734375 -16.6875 L 3.734375 0 Z M 2.09375 0 "/></g></g></g><g fill="#000000" fill-opacity="1"><g transform="translate(188.840804, 267.991974)"><g><path d="M 13.9375 -15.234375 L 7.984375 -15.234375 L 7.984375 0 L 6.34375 0 L 6.34375 -15.234375 L 0.40625 -15.234375 L 0.40625 -16.6875 L 13.9375 -16.6875 Z M 13.9375 -15.234375 "/></g></g></g><g fill="#000000" fill-opacity="1"><g transform="translate(211.611559, 267.991974)"><g><path d="M 8.859375 -1.359375 C 9.910156 -1.359375 10.785156 -1.554688 11.484375 -1.953125 C 12.179688 -2.359375 12.734375 -2.882812 13.140625 -3.53125 C 13.554688 -4.1875 13.847656 -4.925781 14.015625 -5.75 C 14.179688 -6.582031 14.265625 -7.421875 14.265625 -8.265625 L 14.265625 -16.6875 L 15.90625 -16.6875 L 15.90625 -8.265625 C 15.90625 -7.140625 15.78125 -6.070312 15.53125 -5.0625 C 15.28125 -4.050781 14.875 -3.160156 14.3125 -2.390625 C 13.757812 -1.628906 13.035156 -1.019531 12.140625 -0.5625 C 11.253906 -0.101562 10.171875 0.125 8.890625 0.125 C 7.566406 0.125 6.453125 -0.113281 5.546875 -0.59375 C 4.648438 -1.070312 3.925781 -1.703125 3.375 -2.484375 C 2.832031 -3.273438 2.441406 -4.171875 2.203125 -5.171875 C 1.972656 -6.171875 1.859375 -7.203125 1.859375 -8.265625 L 1.859375 -16.6875 L 3.484375 -16.6875 L 3.484375 -8.265625 C 3.484375 -7.390625 3.566406 -6.535156 3.734375 -5.703125 C 3.910156 -4.878906 4.203125 -4.144531 4.609375 -3.5 C 5.023438 -2.851562 5.578125 -2.332031 6.265625 -1.9375 C 6.960938 -1.550781 7.828125 -1.359375 8.859375 -1.359375 Z M 8.859375 -1.359375 "/></g></g></g><g fill="#000000" fill-opacity="1"><g transform="translate(237.789253, 267.991974)"><g><path d="M 2.09375 0 L 2.09375 -16.6875 L 9.140625 -16.6875 C 9.859375 -16.6875 10.519531 -16.53125 11.125 -16.21875 C 11.726562 -15.914062 12.25 -15.515625 12.6875 -15.015625 C 13.125 -14.523438 13.460938 -13.96875 13.703125 -13.34375 C 13.953125 -12.71875 14.078125 -12.082031 14.078125 -11.4375 C 14.078125 -10.832031 13.984375 -10.25 13.796875 -9.6875 C 13.617188 -9.132812 13.367188 -8.632812 13.046875 -8.1875 C 12.734375 -7.738281 12.347656 -7.363281 11.890625 -7.0625 C 11.429688 -6.757812 10.921875 -6.550781 10.359375 -6.4375 L 14.453125 0 L 12.59375 0 L 8.671875 -6.15625 L 3.734375 -6.15625 L 3.734375 0 Z M 3.734375 -7.609375 L 9.1875 -7.609375 C 9.675781 -7.609375 10.117188 -7.710938 10.515625 -7.921875 C 10.910156 -8.140625 11.25 -8.425781 11.53125 -8.78125 C 11.820312 -9.144531 12.046875 -9.550781 12.203125 -10 C 12.359375 -10.457031 12.4375 -10.9375 12.4375 -11.4375 C 12.4375 -11.945312 12.34375 -12.429688 12.15625 -12.890625 C 11.976562 -13.347656 11.734375 -13.75 11.421875 -14.09375 C 11.117188 -14.4375 10.757812 -14.710938 10.34375 -14.921875 C 9.9375 -15.128906 9.503906 -15.234375 9.046875 -15.234375 L 3.734375 -15.234375 Z M 3.734375 -7.609375 "/></g></g></g><g fill="#000000" fill-opacity="1"><g transform="translate(261.570349, 267.991974)"><g><path d="M 13.296875 -1.453125 L 13.296875 0 L 2.09375 0 L 2.09375 -16.6875 L 13.09375 -16.6875 L 13.09375 -15.234375 L 3.734375 -15.234375 L 3.734375 -9.21875 L 11.890625 -9.21875 L 11.890625 -7.828125 L 3.734375 -7.828125 L 3.734375 -1.453125 Z M 13.296875 -1.453125 "/></g></g></g><g fill="#000000" fill-opacity="1"><g transform="translate(284.317621, 267.991974)"><g><path d="M 11.84375 -13.5625 C 11.375 -14.09375 10.742188 -14.519531 9.953125 -14.84375 C 9.171875 -15.175781 8.28125 -15.34375 7.28125 -15.34375 C 5.8125 -15.34375 4.738281 -15.0625 4.0625 -14.5 C 3.394531 -13.945312 3.0625 -13.195312 3.0625 -12.25 C 3.0625 -11.738281 3.148438 -11.320312 3.328125 -11 C 3.503906 -10.6875 3.78125 -10.410156 4.15625 -10.171875 C 4.53125 -9.941406 5.007812 -9.738281 5.59375 -9.5625 C 6.1875 -9.394531 6.882812 -9.222656 7.6875 -9.046875 C 8.582031 -8.859375 9.382812 -8.644531 10.09375 -8.40625 C 10.800781 -8.175781 11.40625 -7.882812 11.90625 -7.53125 C 12.414062 -7.175781 12.800781 -6.75 13.0625 -6.25 C 13.332031 -5.75 13.46875 -5.125 13.46875 -4.375 C 13.46875 -3.601562 13.316406 -2.9375 13.015625 -2.375 C 12.722656 -1.8125 12.304688 -1.34375 11.765625 -0.96875 C 11.234375 -0.59375 10.597656 -0.3125 9.859375 -0.125 C 9.128906 0.0507812 8.328125 0.140625 7.453125 0.140625 C 4.867188 0.140625 2.632812 -0.664062 0.75 -2.28125 L 1.578125 -3.625 C 1.867188 -3.3125 2.222656 -3.007812 2.640625 -2.71875 C 3.054688 -2.4375 3.519531 -2.191406 4.03125 -1.984375 C 4.539062 -1.773438 5.082031 -1.609375 5.65625 -1.484375 C 6.238281 -1.367188 6.851562 -1.3125 7.5 -1.3125 C 8.832031 -1.3125 9.867188 -1.550781 10.609375 -2.03125 C 11.347656 -2.507812 11.71875 -3.234375 11.71875 -4.203125 C 11.71875 -4.722656 11.613281 -5.160156 11.40625 -5.515625 C 11.195312 -5.867188 10.878906 -6.171875 10.453125 -6.421875 C 10.035156 -6.679688 9.507812 -6.90625 8.875 -7.09375 C 8.25 -7.28125 7.523438 -7.46875 6.703125 -7.65625 C 5.816406 -7.863281 5.046875 -8.078125 4.390625 -8.296875 C 3.734375 -8.515625 3.175781 -8.785156 2.71875 -9.109375 C 2.269531 -9.441406 1.929688 -9.835938 1.703125 -10.296875 C 1.472656 -10.765625 1.359375 -11.335938 1.359375 -12.015625 C 1.359375 -12.773438 1.503906 -13.457031 1.796875 -14.0625 C 2.085938 -14.664062 2.5 -15.164062 3.03125 -15.5625 C 3.5625 -15.96875 4.1875 -16.273438 4.90625 -16.484375 C 5.632812 -16.691406 6.4375 -16.796875 7.3125 -16.796875 C 8.425781 -16.796875 9.414062 -16.628906 10.28125 -16.296875 C 11.144531 -15.960938 11.929688 -15.488281 12.640625 -14.875 Z M 11.84375 -13.5625 "/></g></g></g><g clip-path="url(#5de34a480c)"><path stroke-linecap="round" transform="matrix(0.0145462, 0, 0, -0.0145016, 68.433084, 193.448718)" fill="none" stroke-linejoin="round" d="M 24.472235 51.683865 C 1022.368988 53.56943 2020.265742 55.454995 2561.643528 47.104635 C 3103.021315 38.484908 3187.880135 19.629256 3217.419597 146.50086 C 3246.95906 273.641831 3221.447706 546.51006 3216.345435 729.679255 C 3211.511705 912.848451 3227.624139 1006.318614 3197.547595 1057.498242 C 3167.739592 1108.947237 3091.742611 1118.105697 3050.924445 1101.943709 C 3010.374819 1085.781721 3005.004007 1044.568652 3011.717522 929.818538 C 3018.431036 815.337791 3036.960335 627.319999 3045.553633 465.161387 C 3054.415472 302.733409 3053.072769 166.164612 3073.481852 94.513133 C 3094.159476 22.592287 3136.857427 15.858125 3166.128349 31.750746 C 3195.667811 47.374001 3211.511705 85.624039 3221.447706 242.395321 C 3231.652247 399.43597 3235.411815 675.26723 3241.588249 837.964574 C 3247.496141 1000.661918 3255.552358 1050.225348 3309.529012 1074.198963 C 3363.774207 1098.172578 3463.939839 1096.55638 3516.842331 1096.287013 C 3569.744824 1095.74828 3575.652716 1096.55638 3576.189797 1036.487658 C 3576.726878 976.688303 3572.161689 856.012127 3568.402121 736.95215 C 3564.642553 618.161539 3561.957147 500.717761 3540.205361 440.110306 C 3518.185034 379.502852 3476.829787 375.462355 3448.901568 378.964119 C 3420.704808 382.196516 3406.203617 392.971175 3391.433886 475.397313 C 3376.932695 558.092818 3362.162964 712.709168 3349.273017 821.53322 C 3336.383069 930.357271 3325.104365 993.389024 3331.81788 1033.255261 C 3338.531394 1073.390864 3362.968586 1090.360951 3433.863296 1091.97715 C 3504.758006 1093.862715 3622.110234 1080.663758 3681.994781 1143.156778 C 3742.147869 1205.919164 3744.564734 1344.373527 3734.091652 1704.247123 C 3723.350029 2064.120719 3699.449918 2645.144183 3632.583317 3087.713284 C 3565.985256 3530.282384 3456.689244 3834.127756 3306.306526 4036.691337 C 3155.655267 4239.254918 2963.64876 4340.536709 2829.109935 4297.976808 C 2694.302569 4255.14754 2617.231426 4068.745947 2605.147101 3519.507726 C 2593.062775 2970.538872 2646.502348 2058.73339 2661.003539 1593.537506 C 2675.77327 1128.610989 2651.87316 1109.755336 3098.187585 1101.943709 C 3544.770551 1093.862715 4461.836593 1096.55638 5322.777656 1096.55638 C 6183.71872 1096.55638 6988.803345 1093.862715 7407.189551 1104.637374 C 7825.844298 1115.142666 7857.800625 1139.116281 7873.644519 1269.759016 C 7889.756953 1400.401751 7889.756953 1637.713606 7888.41425 1881.490257 C 7887.071547 2125.536273 7884.386142 2376.047085 7826.91846 2513.423982 C 7769.719319 2650.531512 7657.737902 2674.505127 7347.305004 2685.279786 C 7036.603566 2695.785078 6527.450648 2693.36078 6043.809083 2683.932954 C 5559.898979 2674.505127 5101.500228 2658.612506 4834.839443 2650.531512 C 4568.447199 2642.450518 4493.792921 2642.450518 4476.337784 2721.105526 C 4459.151187 2799.760533 4498.895191 2957.070548 4500.506435 3178.489782 C 4501.849138 3399.639649 4464.521999 3684.898735 4408.39702 3940.796876 C 4352.540581 4196.695017 4277.886303 4423.232214 4263.116572 4557.915446 C 4248.615381 4692.329311 4293.730197 4735.158579 4394.969991 4735.158579 C 4496.478326 4735.158579 4653.574559 4692.329311 4893.649827 4684.517684 C 5133.456555 4676.43669 5455.973778 4703.10397 5747.877377 4731.118082 C 6039.780975 4759.132194 6301.070948 4788.493139 6438.295179 4741.892741 C 6575.51941 4695.022976 6588.946438 4572.461235 6562.092381 4432.66004 C 6535.506865 4292.589478 6468.908804 4135.279463 6487.706644 3880.728154 C 6506.235943 3626.176846 6610.161143 3274.384243 6686.158124 3063.739668 C 6762.155105 2853.095093 6810.223867 2783.867912 6735.569589 2749.119638 C 6660.91531 2714.640731 6463.537992 2714.640731 6271.800026 2739.961178 C 6079.79352 2765.281626 5893.157824 2815.922521 5739.82116 2839.896136 C 5586.484495 2863.869752 5466.715401 2861.176087 5318.749548 2837.202472 C 5170.783694 2813.228857 4994.889622 2767.975291 4824.366361 2730.533352 C 4653.574559 2693.36078 4488.422109 2663.999835 4345.827067 2646.491015 C 4203.232025 2629.251561 4083.194391 2623.864232 3995.381625 2597.196952 C 3907.300318 2570.529672 3851.17534 2522.582442 3848.758474 2513.423982 C 3846.073069 2503.996156 3896.558696 2533.3571 3941.942052 2597.196952 C 3987.325408 2661.306171 4027.337953 2759.894297 4020.624438 2934.443765 C 4013.910924 3108.993234 3960.471351 3359.504046 3883.400208 3614.324721 C 3806.060524 3868.87603 3704.82073 4127.467836 3597.941583 4287.202149 C 3491.330977 4447.205829 3379.618101 4508.621383 3296.907606 4523.167172 C 3214.19711 4537.982327 3161.026078 4505.927718 3062.203149 4457.980487 C 2963.64876 4410.033257 2819.711015 4345.924038 2817.025609 4344.577206 C 2814.340204 4343.230374 2952.907137 4404.645927 3060.860446 4445.858997 C 3168.813754 4487.072066 3246.153438 4508.621383 3428.761025 4508.621383 C 3611.368612 4508.621383 3899.244101 4487.072066 4529.777357 4475.219941 C 5160.042072 4463.09845 6132.964552 4460.404786 7196.653745 4477.913606 C 8260.342938 4495.153059 9414.530303 4532.594998 10132.876324 4537.712961 C 10851.222345 4543.10029 11133.727024 4516.43301 11297.805311 4549.834452 C 11461.615058 4583.235893 11506.998414 4676.43669 11494.914089 4735.158579 C 11482.829763 4793.611102 11413.546296 4817.584717 11243.560116 4814.891053 C 11073.305396 4811.928021 10802.347962 4782.29771 10517.157878 4782.29771 C 10231.967794 4782.29771 9932.54506 4811.928021 9705.359738 4838.864668 C 9478.442958 4865.801314 9323.76359 4889.77493 9246.423906 4852.332991 C 9169.084223 4815.160419 9169.084223 4716.572293 9173.112331 4553.874949 C 9177.14044 4391.177604 9185.196657 4164.640408 9186.53936 3958.03633 C 9187.882062 3751.432252 9182.511251 3565.030658 9165.056114 3395.599152 C 9147.869518 3226.437013 9118.598596 3074.514327 9090.670377 2950.605753 C 9062.473617 2826.427813 9035.888101 2730.533352 9095.772647 2693.36078 C 9155.925735 2655.918841 9302.548885 2677.198792 9467.701335 2697.13191 C 9633.122325 2717.334395 9816.804075 2735.920681 10003.43977 2745.348508 C 10190.075465 2754.506967 10379.396566 2754.506967 10549.919827 2757.200632 C 10720.711629 2759.894297 10872.43705 2765.281626 10992.474685 2753.160135 C 11112.512319 2741.308011 11200.325085 2711.947066 11255.107361 2723.79919 C 11309.621096 2735.920681 11331.104342 2789.255241 11317.677313 2911.816982 C 11304.250285 3034.378724 11256.181523 3226.437013 11259.40401 3392.636121 C 11262.626497 3559.104596 11316.871692 3699.983257 11340.771802 3855.94644 C 11364.671913 4011.909623 11358.49548 4182.957327 11375.950617 4317.909926 C 11393.405754 4452.862525 11434.492461 4551.720017 11477.190411 4586.468291 C 11519.888362 4621.216565 11564.197555 4591.586254 11639.388915 4564.649607 C 11714.848814 4537.982327 11821.45942 4513.739345 11946.599325 4501.887221 C 12072.007771 4489.76573 12215.945516 4489.76573 12237.428761 4448.552661 C 12258.643466 4407.339592 12157.403672 4324.644088 12061.266148 4168.680905 C 11965.397165 4012.717722 11874.898993 3783.486861 11828.172935 3546.175006 C 11781.446876 3308.863151 11778.76147 3063.739668 11770.705253 2907.776485 C 11762.917576 2751.813303 11749.490548 2685.279786 11597.496586 2659.959338 C 11445.502624 2634.638891 11155.210269 2650.531512 10908.421487 2705.212904 C 10661.901244 2759.894297 10459.153115 2853.095093 10198.131682 2873.028212 C 9936.841709 2893.230696 9617.009891 2839.896136 9367.804244 2795.989403 C 9118.598596 2751.813303 8940.019118 2717.334395 8765.199207 2692.013948 C 8590.647838 2666.6935 8420.124576 2650.531512 8284.243049 2641.373052 C 8148.361521 2631.945226 8046.853186 2629.251561 7990.996748 2574.570169 C 7935.140309 2519.888777 7924.398686 2413.489024 7921.713281 2228.164896 C 7919.027875 2042.840769 7924.398686 1778.861634 7917.685172 1578.991717 C 7910.971658 1379.121801 7892.442359 1243.091736 7990.996748 1176.55822 C 8089.551136 1109.755336 8305.457754 1112.449001 8931.9629 1117.83633 C 9558.468047 1123.22366 10595.303183 1131.304654 11193.611571 1129.957821 C 11792.188498 1128.610989 11952.238677 1117.83633 12029.309821 1292.385799 C 12106.649504 1466.935268 12101.278693 1826.808864 12086.777502 2069.508049 C 12072.007771 2311.937867 12048.10766 2437.462639 12009.437818 2514.501448 C 11970.767977 2592.078989 11917.328403 2621.170568 11861.471965 2645.144183 C 11805.615527 2669.117798 11746.805142 2687.973451 11768.019847 2671.811463 C 11789.503093 2655.918841 11890.742887 2605.277946 11955.998245 2562.718045 C 12021.522144 2519.888777 12050.793066 2485.40987 12081.406691 2599.890617 C 12112.020316 2714.640731 12143.976643 2978.350499 12204.129731 3239.635969 C 12264.014278 3500.92144 12351.827044 3759.513246 12443.936459 3946.184205 C 12535.777333 4132.585799 12631.914857 4247.335912 12746.313139 4306.057802 C 12860.979962 4364.510324 12994.444625 4367.203989 13023.715547 4392.524437 C 13052.986469 4417.844884 12978.33219 4465.792115 12788.205468 4487.341432 C 12597.810205 4508.621383 12292.211037 4503.50342 12293.2852 4482.223469 C 12294.627902 4460.943519 12603.181016 4423.50158 12814.790984 4393.871269 C 13026.400952 4364.510324 13140.799235 4343.230374 13183.497185 4222.015465 C 13226.195135 4100.800556 13196.924213 3879.381322 13176.783671 3336.877263 C 13156.911669 2794.64257 13146.438587 1930.78432 13138.382369 1513.805033 C 13130.326152 1096.55638 13124.955341 1125.917324 13047.615657 1131.304654 C 12970.275973 1136.422616 12820.967417 1117.83633 12721.070326 1113.795833 C 12621.173234 1109.755336 12570.419067 1120.529995 12496.57041 1124.570492 C 12422.453213 1128.610989 12325.241527 1125.917324 12238.234383 1124.570492 C 12151.227239 1123.22366 12074.693177 1123.22366 12075.498798 1125.647958 C 12076.572961 1127.80289 12155.255347 1132.651486 12195.536433 1080.663758 C 12235.817518 1028.676031 12237.965842 919.851979 12238.502924 801.869468 C 12239.308545 684.156323 12238.502924 556.745985 12261.865953 490.481835 C 12285.228983 424.217685 12332.492123 418.830356 12360.688882 469.471251 C 12389.154183 520.112146 12398.553103 626.781266 12406.87786 748.265541 C 12415.202618 870.019183 12422.453213 1006.587981 12416.813861 1070.158466 C 12411.174509 1133.998318 12392.376669 1124.570492 12406.60932 1118.105697 C 12420.573429 1111.910268 12467.030948 1108.408504 12498.718735 1106.522939 C 12530.406522 1104.637374 12547.056037 1103.829274 12553.23247 951.367855 C 12559.140363 798.63707 12554.306632 494.252966 12553.501011 320.24223 C 12552.426848 146.231494 12555.112254 102.863493 12583.309014 81.044809 C 12611.774314 58.956759 12665.750968 58.418026 12691.799404 61.91979 C 12717.579298 65.690921 12715.699514 73.502548 12729.395083 234.583694 C 12743.090652 395.395473 12772.361574 709.476771 12783.103197 883.756873 C 12793.576279 1058.036975 12785.520062 1092.515883 12772.361574 1067.464802 C 12758.934546 1042.683087 12740.405247 957.832651 12718.38492 779.781418 C 12696.364593 601.460818 12671.12178 329.670056 12659.843076 191.215693 C 12648.295831 53.030697 12650.981237 48.182101 13260.031247 50.337032 C 13869.081257 52.222598 15084.495871 60.842325 16299.910485 69.731418 " stroke="#000000" stroke-width="44.511002" stroke-opacity="1" stroke-miterlimit="22.926001"/></g></svg>