<svg xmlns="http://www.w3.org/2000/svg" xmlns:xlink="http://www.w3.org/1999/xlink" width="672" zoomAndPan="magnify" viewBox="0 0 504 647.999998" height="864" preserveAspectRatio="xMidYMid meet" version="1.0"><defs><clipPath id="e6934c0a04"><path d="M 167.4375 194.398438 L 336.9375 194.398438 L 336.9375 453.898438 L 167.4375 453.898438 Z M 167.4375 194.398438 " clip-rule="nonzero"/></clipPath></defs><g clip-path="url(#e6934c0a04)"><path fill="#251f20" d="M 317.253906 292.058594 C 315.964844 295.109375 314.785156 299.703125 314.789062 306.128906 C 314.792969 311.894531 314.273438 316.878906 313.179688 320.773438 C 312.632812 322.722656 311.945312 324.398438 311.144531 325.785156 C 310.429688 327.023438 309.621094 328.019531 308.71875 328.84375 C 306.578125 326.878906 304.457031 325.433594 302.839844 324.453125 C 301.203125 323.464844 300.078125 322.957031 299.972656 322.90625 C 299.730469 322.800781 299.492188 322.722656 299.230469 322.664062 C 298.457031 322.503906 297.679688 322.40625 296.898438 322.34375 C 296.113281 322.285156 295.324219 322.261719 294.550781 322.261719 C 292.617188 322.261719 290.746094 322.402344 289.324219 322.542969 C 287.90625 322.683594 286.953125 322.820312 286.910156 322.824219 L 286.847656 322.835938 C 282.007812 323.625 276.3125 324.230469 270.203125 324.628906 C 267.394531 324.816406 264.5 324.957031 261.5625 325.054688 L 261.5625 320.972656 L 290.824219 320.972656 L 290.898438 320.96875 C 293.777344 320.914062 296.1875 320.324219 298.132812 319.324219 C 299.589844 318.578125 300.765625 317.605469 301.640625 316.574219 C 302.304688 315.804688 302.796875 315.003906 303.167969 314.246094 C 303.722656 313.109375 304 312.0625 304.148438 311.257812 C 304.257812 310.632812 304.292969 310.148438 304.304688 309.851562 L 306.667969 285.820312 C 306.734375 285.820312 306.808594 285.816406 306.875 285.816406 C 312.058594 285.816406 316.332031 286.636719 319.753906 287.742188 C 319.171875 288.449219 318.1875 289.84375 317.253906 292.058594 Z M 309.355469 354.078125 C 309.105469 354.84375 308.773438 355.445312 308.292969 356.027344 C 307.871094 356.53125 307.316406 357.027344 306.542969 357.519531 C 305.195312 358.386719 303.152344 359.234375 300.289062 359.9375 C 295.996094 361.003906 289.917969 361.757812 281.808594 362.253906 C 273.691406 362.761719 263.53125 363.027344 250.972656 363.207031 C 246.375 363.273438 242.101562 363.308594 238.132812 363.308594 C 228.289062 363.308594 220.320312 363.085938 213.96875 362.582031 C 209.207031 362.203125 205.355469 361.660156 202.339844 360.957031 C 200.078125 360.433594 198.289062 359.816406 196.933594 359.15625 C 195.914062 358.664062 195.140625 358.152344 194.550781 357.636719 C 194.101562 357.25 193.757812 356.859375 193.46875 356.449219 C 193.042969 355.835938 192.734375 355.167969 192.511719 354.324219 C 192.292969 353.484375 192.175781 352.46875 192.175781 351.257812 C 192.171875 349.699219 192.375 347.820312 192.753906 345.65625 C 192.933594 344.621094 193.15625 343.515625 193.40625 342.351562 C 200.890625 344.824219 218.480469 349.417969 245.980469 349.414062 C 263.078125 349.414062 284.007812 347.632812 308.691406 342.480469 C 308.90625 343.5 309.101562 344.480469 309.257812 345.390625 C 309.617188 347.460938 309.804688 349.25 309.804688 350.726562 C 309.804688 352.113281 309.640625 353.210938 309.355469 354.078125 Z M 189.574219 306.128906 C 189.578125 299.703125 188.398438 295.109375 187.109375 292.058594 C 186.730469 291.167969 186.347656 290.410156 185.984375 289.773438 C 189.15625 288.886719 192.976562 288.265625 197.484375 288.261719 C 197.5 288.261719 197.515625 288.265625 197.53125 288.265625 L 199.652344 309.851562 C 199.664062 310.21875 199.714844 310.875 199.90625 311.730469 C 200.082031 312.519531 200.382812 313.476562 200.917969 314.5 C 201.3125 315.265625 201.84375 316.066406 202.539062 316.832031 C 203.578125 317.980469 205 319.03125 206.765625 319.761719 C 208.535156 320.496094 210.628906 320.921875 213.054688 320.96875 L 213.132812 320.972656 L 244.035156 320.972656 L 244.035156 325.15625 C 239.882812 325.0625 235.792969 324.886719 231.875 324.628906 C 225.765625 324.230469 220.066406 323.625 215.226562 322.835938 L 215.164062 322.824219 C 215.121094 322.820312 214.167969 322.683594 212.75 322.542969 C 211.332031 322.402344 209.457031 322.261719 207.527344 322.261719 C 206.75 322.261719 205.960938 322.285156 205.179688 322.34375 C 204.394531 322.40625 203.621094 322.503906 202.84375 322.664062 C 202.582031 322.722656 202.347656 322.800781 202.105469 322.90625 C 201.996094 322.957031 200.875 323.464844 199.234375 324.453125 C 197.933594 325.242188 196.300781 326.339844 194.597656 327.761719 C 194.105469 327.175781 193.644531 326.523438 193.214844 325.785156 C 192.011719 323.707031 191.078125 320.96875 190.46875 317.652344 C 189.859375 314.335938 189.574219 310.453125 189.574219 306.128906 Z M 261.5625 332.390625 C 264.660156 332.289062 267.714844 332.140625 270.683594 331.945312 C 276.953125 331.535156 282.832031 330.917969 287.96875 330.082031 L 287.972656 330.082031 C 288.003906 330.074219 288.859375 329.953125 290.101562 329.832031 C 291.355469 329.710938 293.007812 329.59375 294.550781 329.59375 C 295.179688 329.59375 295.785156 329.613281 296.332031 329.65625 C 296.695312 329.683594 297.027344 329.722656 297.316406 329.765625 C 297.699219 329.960938 298.351562 330.308594 299.164062 330.804688 C 300.46875 331.601562 302.175781 332.78125 303.816406 334.296875 C 304.390625 334.832031 304.941406 335.265625 305.429688 335.660156 C 305.433594 335.664062 305.433594 335.664062 305.433594 335.664062 C 282 340.4375 262.167969 342.082031 245.980469 342.082031 C 227.925781 342.082031 214.394531 340.046875 205.429688 338.03125 C 201.695312 337.195312 198.765625 336.363281 196.617188 335.683594 C 197.113281 335.28125 197.671875 334.839844 198.261719 334.296875 C 199.953125 332.734375 201.71875 331.523438 203.035156 330.730469 C 203.691406 330.328125 204.238281 330.035156 204.605469 329.84375 C 204.667969 329.816406 204.710938 329.792969 204.761719 329.765625 C 205.050781 329.722656 205.378906 329.683594 205.746094 329.65625 C 206.289062 329.613281 206.898438 329.59375 207.527344 329.59375 C 209.089844 329.59375 210.769531 329.714844 212.03125 329.839844 C 212.664062 329.902344 213.191406 329.964844 213.558594 330.007812 C 213.742188 330.03125 213.882812 330.050781 213.976562 330.0625 L 214.082031 330.078125 L 214.101562 330.082031 C 214.101562 330.082031 214.105469 330.082031 214.105469 330.082031 C 219.246094 330.917969 225.125 331.535156 231.390625 331.945312 C 235.476562 332.214844 239.726562 332.394531 244.035156 332.488281 C 246.359375 332.539062 248.699219 332.566406 251.039062 332.566406 C 254.566406 332.566406 258.089844 332.507812 261.5625 332.390625 Z M 212.082031 208.570312 C 212.398438 206.5625 212.882812 205.179688 213.367188 204.242188 C 213.734375 203.535156 214.089844 203.078125 214.402344 202.761719 C 214.878906 202.292969 215.257812 202.117188 215.542969 202.015625 C 215.683594 201.964844 215.800781 201.941406 215.878906 201.929688 L 215.945312 201.921875 C 215.992188 201.925781 216.035156 201.925781 216.117188 201.925781 L 287.839844 201.925781 C 287.921875 201.925781 287.964844 201.925781 288.011719 201.921875 C 288.070312 201.929688 288.238281 201.949219 288.464844 202.03125 C 288.648438 202.101562 288.871094 202.207031 289.128906 202.394531 C 289.511719 202.679688 289.996094 203.148438 290.511719 204.09375 C 291.019531 205.027344 291.542969 206.453125 291.871094 208.5625 L 300.382812 274.710938 L 296.984375 309.265625 L 296.96875 309.535156 L 296.96875 309.597656 C 296.96875 309.636719 296.945312 309.949219 296.832031 310.347656 C 296.75 310.644531 296.617188 310.984375 296.417969 311.3125 C 296.273438 311.5625 296.085938 311.804688 295.851562 312.042969 C 295.488281 312.394531 295.007812 312.746094 294.21875 313.054688 C 293.429688 313.355469 292.324219 313.605469 290.761719 313.640625 L 213.195312 313.640625 C 211.21875 313.59375 209.980469 313.210938 209.179688 312.804688 C 208.570312 312.488281 208.191406 312.15625 207.898438 311.816406 C 207.679688 311.558594 207.511719 311.296875 207.382812 311.03125 C 207.1875 310.636719 207.082031 310.238281 207.035156 309.957031 C 207.007812 309.816406 206.996094 309.707031 206.992188 309.648438 L 206.988281 309.597656 L 206.984375 309.597656 C 206.980469 309.488281 206.980469 309.378906 206.972656 309.265625 L 203.574219 274.714844 Z M 335.515625 288.347656 L 335.515625 288.34375 C 335.296875 288.121094 332.863281 285.671875 328.105469 283.257812 C 323.433594 280.886719 316.496094 278.574219 307.386719 278.492188 L 307.730469 275.019531 C 307.753906 274.753906 307.75 274.453125 307.71875 274.191406 L 299.144531 207.570312 L 299.132812 207.476562 C 298.722656 204.824219 298.027344 202.65625 297.117188 200.886719 C 296.433594 199.5625 295.625 198.464844 294.753906 197.589844 C 293.449219 196.277344 292.011719 195.492188 290.792969 195.078125 C 289.570312 194.660156 288.570312 194.589844 287.988281 194.589844 C 287.910156 194.589844 287.847656 194.589844 287.78125 194.59375 L 216.171875 194.59375 C 216.109375 194.589844 216.042969 194.589844 215.96875 194.589844 C 215.449219 194.589844 214.601562 194.644531 213.558594 194.953125 C 212.78125 195.179688 211.894531 195.554688 210.988281 196.136719 C 209.632812 197.007812 208.269531 198.367188 207.191406 200.242188 C 206.109375 202.121094 205.285156 204.492188 204.824219 207.476562 L 204.8125 207.570312 L 196.238281 274.191406 C 196.207031 274.453125 196.203125 274.753906 196.226562 275.019531 L 196.808594 280.941406 C 187.78125 281.050781 180.898438 283.347656 176.257812 285.703125 C 171.496094 288.121094 169.0625 290.570312 168.84375 290.792969 C 167.433594 292.246094 167.464844 294.566406 168.921875 295.976562 C 170.367188 297.382812 172.679688 297.351562 174.09375 295.917969 C 174.125 295.886719 175.773438 294.261719 179.039062 292.523438 C 179.3125 292.886719 179.925781 293.800781 180.550781 295.421875 C 181.378906 297.582031 182.234375 301.015625 182.234375 306.128906 C 182.238281 312.320312 182.761719 317.898438 184.117188 322.75 C 184.792969 325.175781 185.6875 327.421875 186.859375 329.449219 C 187.527344 330.609375 188.292969 331.695312 189.160156 332.691406 C 188.785156 333.152344 188.421875 333.667969 188.105469 334.246094 C 187.71875 334.953125 187.398438 335.75 187.191406 336.617188 C 187.1875 336.632812 187.183594 336.648438 187.179688 336.667969 C 187.179688 336.675781 187.175781 336.679688 187.175781 336.6875 C 186.515625 339.445312 185.941406 342 185.523438 344.402344 C 185.101562 346.820312 184.835938 349.082031 184.835938 351.257812 C 184.835938 353.035156 185.015625 354.757812 185.480469 356.421875 C 185.878906 357.875 186.507812 359.277344 187.382812 360.550781 C 188.148438 361.664062 189.09375 362.671875 190.1875 363.550781 C 192.109375 365.089844 194.449219 366.242188 197.226562 367.148438 C 201.398438 368.5 206.601562 369.34375 213.289062 369.882812 C 219.96875 370.417969 228.132812 370.640625 238.132812 370.640625 C 240.882812 370.640625 243.789062 370.621094 246.824219 370.589844 L 246.824219 383.144531 L 246.769531 383.144531 C 244.679688 383.144531 242.96875 384.851562 242.96875 386.941406 L 242.96875 387.230469 C 242.96875 388.8125 243.953125 390.175781 245.339844 390.746094 L 245.339844 402.941406 L 245.132812 402.9375 L 195.523438 424.769531 C 194.429688 423.8125 193 423.226562 191.429688 423.226562 C 188 423.226562 185.21875 426.003906 185.21875 429.429688 C 185.21875 432.855469 188 435.636719 191.429688 435.636719 C 194.859375 435.636719 197.640625 432.855469 197.640625 429.429688 C 197.640625 428.886719 197.5625 428.359375 197.429688 427.855469 L 242.621094 415.679688 C 242.621094 415.679688 247.804688 413.832031 247.714844 419.164062 C 247.714844 419.164062 247.804688 420.792969 249.707031 421.0625 L 249.707031 437.511719 C 247.816406 438.46875 246.511719 440.425781 246.511719 442.675781 L 246.511719 447.914062 C 246.511719 451.097656 249.117188 453.703125 252.304688 453.703125 L 252.75 453.703125 C 255.9375 453.703125 258.546875 451.097656 258.546875 447.914062 L 258.546875 442.675781 C 258.546875 440.699219 257.539062 438.949219 256.015625 437.902344 L 256.015625 421.0625 C 257.914062 420.792969 258.003906 419.164062 258.003906 419.164062 C 257.914062 413.832031 263.097656 415.679688 263.097656 415.679688 L 308.097656 427.804688 C 307.65625 428.65625 307.402344 429.625 307.402344 430.652344 C 307.402344 434.078125 310.183594 436.855469 313.613281 436.855469 C 317.042969 436.855469 319.820312 434.078125 319.820312 430.652344 C 319.820312 427.226562 317.042969 424.445312 313.613281 424.445312 C 312.636719 424.445312 311.71875 424.679688 310.894531 425.078125 L 260.585938 402.9375 L 259.667969 402.949219 L 259.667969 390.953125 C 261.402344 390.601562 262.71875 389.0625 262.71875 387.230469 L 262.71875 386.941406 C 262.71875 384.851562 261.003906 383.144531 258.917969 383.144531 L 258.816406 383.144531 L 258.816406 370.410156 C 267.902344 370.234375 275.609375 369.984375 282.140625 369.582031 C 288.371094 369.195312 293.539062 368.675781 297.855469 367.925781 C 301.09375 367.359375 303.863281 366.671875 306.261719 365.773438 C 308.058594 365.097656 309.65625 364.300781 311.054688 363.324219 C 312.105469 362.597656 313.042969 361.761719 313.839844 360.828125 C 315.042969 359.425781 315.902344 357.792969 316.421875 356.078125 C 316.945312 354.363281 317.144531 352.574219 317.144531 350.726562 C 317.144531 348.644531 316.890625 346.472656 316.492188 344.144531 C 316.089844 341.816406 315.53125 339.324219 314.886719 336.617188 C 314.664062 335.679688 314.300781 334.832031 313.871094 334.082031 C 315.300781 332.738281 316.503906 331.175781 317.503906 329.449219 C 319.257812 326.402344 320.390625 322.878906 321.109375 318.976562 C 321.828125 315.070312 322.128906 310.773438 322.128906 306.128906 C 322.128906 300.585938 323.128906 297.019531 324.019531 294.90625 C 324.464844 293.847656 324.886719 293.152344 325.160156 292.75 C 325.296875 292.554688 325.394531 292.429688 325.441406 292.375 L 325.464844 292.34375 L 325.472656 292.339844 L 325.46875 292.339844 C 325.929688 291.855469 326.230469 291.277344 326.378906 290.667969 C 327.515625 291.332031 328.410156 291.953125 329.046875 292.441406 C 329.503906 292.792969 329.832031 293.074219 330.03125 293.253906 C 330.132812 293.34375 330.199219 293.40625 330.238281 293.441406 L 330.269531 293.472656 C 331.683594 294.90625 333.992188 294.933594 335.441406 293.53125 C 336.894531 292.121094 336.929688 289.800781 335.515625 288.347656 " fill-opacity="1" fill-rule="nonzero"/></g></svg>