<svg xmlns="http://www.w3.org/2000/svg" xmlns:xlink="http://www.w3.org/1999/xlink" width="672" zoomAndPan="magnify" viewBox="0 0 504 647.999998" height="864" preserveAspectRatio="xMidYMid meet" version="1.0"><defs><clipPath id="44322c637f"><path d="M 151.199219 250.140625 L 352.949219 250.140625 L 352.949219 397.890625 L 151.199219 397.890625 Z M 151.199219 250.140625 " clip-rule="nonzero"/></clipPath></defs><g clip-path="url(#44322c637f)"><path fill="#11171d" d="M 349.898438 356.972656 L 342.910156 356.972656 C 343.953125 355.816406 344.859375 354.519531 345.570312 353.085938 C 347.625 348.953125 347.585938 344.730469 347.585938 340.269531 C 347.585938 336.597656 347.632812 332.921875 347.585938 329.25 C 347.496094 322.796875 344.222656 316.804688 338.679688 313.425781 C 336.066406 311.832031 333.34375 311.195312 330.535156 310.941406 L 330.535156 277.058594 C 330.535156 274.398438 330.574219 271.738281 330.535156 269.078125 C 330.390625 259.078125 322.496094 250.796875 312.4375 250.410156 C 306.691406 250.191406 300.898438 250.402344 295.148438 250.402344 L 193.054688 250.402344 C 187.289062 250.402344 181.707031 252.335938 177.890625 256.847656 C 174.261719 261.136719 173.324219 266.128906 173.324219 271.53125 L 173.324219 310.894531 C 163.9375 311.929688 156.695312 319.597656 156.566406 329.316406 C 156.515625 333.085938 156.566406 336.863281 156.566406 340.632812 C 156.566406 345.144531 156.597656 349.4375 158.824219 353.554688 C 159.472656 354.753906 160.253906 355.851562 161.132812 356.847656 C 158.949219 356.855469 156.765625 356.890625 154.589844 356.972656 C 154.476562 356.976562 154.363281 356.972656 154.25 356.972656 C 152.601562 356.972656 151.199219 358.371094 151.199219 360.023438 L 151.199219 372.878906 C 151.199219 374.527344 152.597656 375.929688 154.25 375.929688 L 167.605469 375.929688 L 167.605469 386.222656 C 167.605469 388.160156 167.429688 390.234375 168.046875 392.097656 C 169.339844 396.011719 172.832031 397.707031 176.664062 397.839844 C 176.816406 397.851562 176.980469 397.859375 177.148438 397.851562 C 177.367188 397.851562 177.566406 397.832031 177.761719 397.796875 C 181.898438 397.328125 185.167969 394.296875 185.527344 390 C 185.65625 388.472656 185.554688 386.902344 185.554688 385.375 L 185.554688 375.929688 L 318.59375 375.929688 L 318.59375 386.222656 C 318.59375 388.160156 318.417969 390.234375 319.035156 392.097656 C 320.328125 396.011719 323.820312 397.707031 327.648438 397.839844 C 327.804688 397.851562 327.964844 397.859375 328.136719 397.851562 C 328.351562 397.851562 328.554688 397.832031 328.746094 397.796875 C 332.886719 397.328125 336.152344 394.296875 336.515625 390 C 336.644531 388.472656 336.542969 386.902344 336.542969 385.375 L 336.542969 376.027344 C 340.886719 376.074219 345.234375 376.09375 349.558594 375.929688 C 349.671875 375.925781 349.785156 375.929688 349.898438 375.929688 C 350.835938 375.929688 351.542969 375.582031 352.035156 375.054688 C 352.585938 374.5625 352.949219 373.839844 352.949219 372.878906 L 352.949219 360.023438 C 352.949219 358.375 351.550781 356.972656 349.898438 356.972656 Z M 330.441406 375.957031 L 330.441406 383.128906 C 330.441406 385.339844 331.609375 391.578125 328.136719 391.753906 C 326.292969 391.753906 324.824219 391.378906 324.695312 389.253906 C 324.59375 387.546875 324.695312 385.800781 324.695312 384.089844 L 324.695312 375.863281 L 330.441406 375.863281 Z M 334.109375 369.828125 C 333.910156 369.785156 333.703125 369.761719 333.492188 369.761719 L 321.644531 369.761719 C 321.433594 369.761719 321.226562 369.785156 321.027344 369.828125 L 183.125 369.828125 C 182.921875 369.785156 182.714844 369.761719 182.503906 369.761719 L 170.65625 369.761719 C 170.445312 369.761719 170.238281 369.785156 170.039062 369.828125 L 162.261719 369.828125 C 160.648438 369.828125 158.964844 369.71875 157.300781 369.714844 L 157.300781 363.074219 L 341.886719 363.074219 C 343.503906 363.074219 345.1875 363.183594 346.847656 363.191406 L 346.847656 369.828125 Z M 179.453125 375.929688 L 179.453125 383.128906 C 179.453125 385.339844 180.625 391.578125 177.148438 391.753906 C 175.308594 391.753906 173.839844 391.378906 173.707031 389.253906 C 173.605469 387.546875 173.707031 385.800781 173.707031 384.089844 L 173.707031 375.863281 L 179.453125 375.863281 Z M 167.453125 354.492188 C 163.769531 351.652344 162.667969 347.546875 162.667969 343.125 L 162.667969 330.914062 C 162.667969 326.53125 163.660156 322.496094 167.246094 319.59375 C 169.148438 318.054688 171.1875 317.386719 173.324219 317.097656 C 174.324219 316.960938 175.339844 316.90625 176.375 316.886719 C 177.117188 316.871094 177.867188 316.871094 178.625 316.871094 L 327.484375 316.871094 C 328.039062 316.871094 328.59375 316.863281 329.148438 316.871094 C 329.617188 316.878906 330.078125 316.921875 330.535156 316.976562 C 335.671875 317.617188 339.945312 321.289062 341.171875 326.445312 C 341.960938 329.746094 341.480469 333.601562 341.480469 336.957031 C 341.480469 340.3125 341.960938 344.167969 341.171875 347.46875 C 339.917969 352.726562 335.515625 356.433594 330.25 356.972656 L 178.257812 356.972656 C 176.761719 356.972656 175.265625 356.960938 173.765625 356.945312 C 171.484375 356.695312 169.332031 355.933594 167.453125 354.492188 Z M 179.425781 269.277344 C 179.5 262.246094 184.929688 256.597656 192.023438 256.5 C 197.828125 256.417969 203.640625 256.5 209.445312 256.5 L 310.390625 256.5 C 314.777344 256.5 318.878906 257.652344 321.746094 261.269531 C 324.394531 264.613281 324.433594 268.414062 324.433594 272.394531 L 324.433594 310.773438 L 320.566406 310.773438 C 320.574219 303.746094 320.589844 296.71875 320.566406 289.691406 C 320.542969 283.292969 316.753906 277.28125 310.203125 275.847656 C 307.398438 275.234375 304.324219 275.5 301.476562 275.5 L 271.03125 275.5 C 268.152344 275.5 265.269531 275.445312 262.390625 275.5 C 258.136719 275.585938 254.40625 277.492188 251.945312 280.503906 C 250.191406 278.222656 247.710938 276.523438 244.617188 275.847656 C 241.8125 275.234375 238.738281 275.5 235.890625 275.5 L 205.445312 275.5 C 202.570312 275.5 199.683594 275.445312 196.804688 275.5 C 189.339844 275.648438 183.484375 281.40625 183.292969 288.886719 C 183.109375 296.164062 183.25 303.46875 183.285156 310.753906 C 182 310.753906 180.714844 310.757812 179.425781 310.761719 L 179.425781 278.4375 C 179.425781 275.386719 179.394531 272.332031 179.425781 269.277344 Z M 189.816406 286.429688 C 190.859375 283.519531 193.625 281.644531 196.6875 281.601562 C 198.777344 281.570312 200.867188 281.601562 202.957031 281.601562 L 232.160156 281.601562 C 235.148438 281.601562 238.132812 281.582031 241.121094 281.601562 C 245.453125 281.628906 248.800781 284.628906 248.875 289.042969 C 248.699219 296.277344 248.832031 303.53125 248.871094 310.773438 L 204.546875 310.773438 C 199.496094 310.773438 194.445312 310.761719 189.394531 310.753906 L 189.394531 290.628906 C 189.394531 289.203125 189.320312 287.800781 189.816406 286.429688 Z M 254.976562 289.53125 C 254.980469 288.480469 255.035156 287.449219 255.398438 286.429688 C 256.445312 283.519531 259.207031 281.644531 262.269531 281.601562 C 264.359375 281.570312 266.453125 281.601562 268.542969 281.601562 L 297.746094 281.601562 C 300.730469 281.601562 303.71875 281.582031 306.703125 281.601562 C 311.054688 281.628906 314.414062 284.648438 314.464844 289.097656 C 314.539062 296.320312 314.484375 303.546875 314.46875 310.773438 L 254.980469 310.773438 L 254.980469 290.628906 C 254.980469 290.261719 254.976562 289.894531 254.976562 289.53125 Z M 254.976562 289.53125 " fill-opacity="1" fill-rule="nonzero"/></g></svg>